<?xml version="1.0" encoding="utf-8"?>
<!-- Generator: Adobe Illustrator 27.3.1, SVG Export Plug-In . SVG Version: 6.00 Build 0)  -->
<svg version="1.1" id="Capa_1" xmlns="http://www.w3.org/2000/svg" xmlns:xlink="http://www.w3.org/1999/xlink" x="0px" y="0px"
	 viewBox="0 0 831.89 966.89" style="enable-background:new 0 0 831.89 966.89;" xml:space="preserve">
<style type="text/css">
	.st0{fill:#FFFFFF;}
	.st1{fill:#05BAEE;}
	.st2{fill:#C6C6C5;}
	.st3{fill:#0080C8;}
</style>
<g>
	<path class="st0" d="M331.67,78.63l-29.33-24.42c-5.12-4.26-12.74-3.48-16.89,1.73L64.06,334.4l-54.65,11.6
		C3.92,347.17,0,352.01,0,357.62v329.44c0,3.15,1.25,6.17,3.48,8.39l57.34,57.34c12.68,12.68,29.53,19.66,47.45,19.66
		c4.68,0,9.38-0.49,13.96-1.47l17.58-3.74V881.5c0,3.15,1.25,6.17,3.48,8.39l57.34,57.34c12.68,12.68,29.53,19.66,47.45,19.66
		c4.68,0,9.37-0.49,13.95-1.47l378.1-80.37c30.99-6.59,53.15-33.95,53.15-65.64V649.75l85.45-18.16
		c30.99-6.59,53.15-33.95,53.15-65.64V304.12c0-17.8-7.07-34.87-19.66-47.45l-62.37-62.37c-2.84-2.84-6.93-4.05-10.86-3.22
		l-48.67,10.34L532.4,69.92c-5.12-4.26-12.74-3.48-16.89,1.74L505.46,84.3L407.51,2.75c-5.12-4.26-12.74-3.48-16.89,1.73
		L331.67,78.63z"/>
	<g>
		<g>
			<polygon points="714.52,251.84 526.47,95.27 508.86,117.42 401.58,28.1 335.07,111.75 296.41,79.56 46.54,393.82 			"/>
			<g>
				<polygon class="st0" points="400.42,59.74 227.79,276.86 425.19,80.37 				"/>
				<polygon class="st0" points="295.53,105 107.87,341.02 312.03,118.75 				"/>
				<polygon class="st0" points="526.78,122.86 467.18,197.83 540.28,134.1 				"/>
			</g>
		</g>
		<polygon class="st0" points="400.42,59.74 472.63,119.87 400.42,89.81 		"/>
		<polygon class="st0" points="526.78,122.86 643.74,220.25 520.27,141.42 		"/>
	</g>
	<path d="M737.79,215.14L23.27,366.85v315.48l54,54c10.5,10.5,25.59,14.97,40.11,11.88l45.7-9.72v138.28l54,54
		c10.5,10.5,25.59,14.97,40.11,11.88l378.1-80.36c20.24-4.3,34.72-22.18,34.72-42.87V630.91l103.88-22.08
		c20.24-4.3,34.72-22.18,34.72-42.87V304.12c0-11.63-4.62-22.77-12.84-30.99L737.79,215.14z"/>
	<path class="st0" d="M46.54,653.59l44.83-9.53V570.6l75.76-16.1v-6.04V393.85L46.54,419.48V653.59z M91.37,442.44l30.93-6.57v95.67
		l-30.93,6.57V442.44z M530.03,550.99l44.68-9.5V307.38l-44.68,9.5V550.99z M186.35,624.04l44.67-9.5V380.43l-44.67,9.5V624.04z
		 M714.52,373.98v-96.32l-120.59,25.63V537.4l98.08-20.85c13.12-2.79,22.51-14.38,22.51-27.8v-82.29L669.69,416v72.98l-30.93,6.58
		v-169.3l30.93-6.58v63.83L714.52,373.98z M250.25,610.46l120.59-25.63v-105.3l-44.83,9.53v72.98l-30.93,6.57V399.3l30.93-6.57
		v63.83l44.83-9.53v-96.32l-120.59,25.63V610.46z M465.98,446.4l-31.08-109.47l-44.83,9.53v234.11l44.83-9.53v-115.1l31.08,108.49
		l44.83-9.53V320.8l-44.83,9.53V446.4z"/>
	<path class="st1" d="M557.69,670.35l18.22-17.57V569.5l-284.43,60.46l-22.59,114.82l-23.9-104.93l-58.64,12.46v195.73l37.48-7.97
		V705.9l26.38,128.56l36.3-7.72l28.08-140.14v134.17l37.48-7.97v-169.8l42.84-9.1v169.66l37.48-7.97V625.95l42.71-9.08v169.8
		l78.31-16.65c13.12-2.79,22.51-14.38,22.51-27.8v-61.65L557.69,670.35z M538.56,746.01l-25.99,5.52V696.8l25.99-5.52V746.01z
		 M538.56,659.2l-25.99,5.52v-54.73l25.99-5.52V659.2z"/>
	<g>
		<path class="st1" d="M311.88,329.39c-16.89,3.59-30.64-7.85-30.64-25.51c0-17.66,13.74-34.94,30.64-38.53
			c7.2-1.53,14.2-0.36,19.7,3.31l6.04-8.79c-7.19-4.79-16.33-6.33-25.74-4.33c-22.07,4.69-40.02,27.27-40.02,50.33
			c0,12.84,5.57,23.16,14.31,28.98L46.54,385.79v9.8l263.82-56.08v-0.04c0.51-0.09,1.01-0.18,1.52-0.28
			c13.97-2.97,27.12-13.54,34.32-27.6l-8.04-3.34C332.56,319.18,322.74,327.08,311.88,329.39z"/>
		<path class="st1" d="M476.41,294.42c8.74-9.54,14.31-22.22,14.31-35.06c0-23.06-17.95-38.01-40.02-33.32
			c-1.37,0.29-2.73,0.65-4.06,1.08l0.94,9.55c1.02-0.32,2.07-0.6,3.12-0.83c16.89-3.59,30.64,7.85,30.64,25.51
			c0,17.66-13.74,34.94-30.64,38.53c-16.89,3.59-30.64-7.85-30.64-25.51c0-7.05,2.15-14.19,6.21-20.65l-7.47-4.34
			c-5.31,8.44-8.11,17.77-8.11,26.98c0,23.06,17.95,38.01,40.02,33.32l263.82-56.08v-9.8L476.41,294.42z"/>
		<path class="st1" d="M443.64,270.23c1.13,2.2,3.93,2.63,6.26,0.95c2.33-1.67,3.31-4.81,2.19-7.01l-29.34-57.34v-8.77
			c0-2.71-2.1-4.46-4.69-3.91c-2.59,0.55-4.69,3.19-4.69,5.9v5.9l-45.67,29.13l3.54,8.33l31.33-19.99l-31.74,51.09l-16.32-48.87
			l10.1-2.15v-9.8l-33.12,7.04v9.8l13.16-2.8l19.21,57.52c-2.02,2.19-4.67,3.6-7.35,3.8l-28.79,2.17l22.42-16.45l-4.18-7.88
			l-36.15,26.52c-2.11,1.55-3.15,4.37-2.3,6.59c0.62,1.63,2.25,2.45,4.03,2.32l43.76-3.29c0.82-0.06,1.64-0.18,2.46-0.35
			c5.92-1.26,11.57-5.37,15.17-11.16l43.64-70.24L443.64,270.23z"/>
	</g>
	<g>
		<polygon class="st2" points="543.72,330.56 574.71,323.97 574.71,307.38 530.03,316.88 530.03,550.99 543.72,548.08 		"/>
		<polygon class="st2" points="263.94,390.03 370.84,367.31 370.84,350.71 250.25,376.35 250.25,610.46 263.94,607.55 		"/>
		<polygon class="st2" points="326.01,456.56 339.69,453.65 339.69,406.41 326.01,392.73 		"/>
		<polygon class="st2" points="403.75,360.15 439.34,352.58 434.89,336.93 390.06,346.46 390.06,580.57 403.75,577.67 		"/>
		<polygon class="st2" points="465.98,564.44 475.18,562.48 448.58,469.63 434.89,455.95 		"/>
		<polygon class="st2" points="339.69,502.73 370.84,496.11 370.84,479.52 326.01,489.05 326.01,562.03 295.08,568.6 308.77,582.29 
			339.69,575.71 		"/>
		<polygon class="st2" points="479.66,460.09 479.66,344.01 510.81,337.39 510.81,320.8 465.98,330.33 465.98,446.4 		"/>
		<polygon class="st2" points="607.62,316.98 714.52,294.26 714.52,277.66 593.93,303.29 593.93,537.4 607.62,534.5 		"/>
		<polygon class="st2" points="669.69,488.98 638.76,495.55 652.44,509.24 683.38,502.66 683.38,429.68 714.52,423.06 
			714.52,406.47 669.69,416 		"/>
		<polygon class="st2" points="669.69,383.51 683.38,380.6 683.38,333.36 669.69,319.68 		"/>
		<polygon class="st2" points="60.23,433.17 167.13,410.44 167.13,393.85 46.54,419.48 46.54,653.59 60.23,650.68 		"/>
		<polygon class="st2" points="135.98,449.55 122.3,435.87 122.3,531.54 91.37,538.11 105.06,551.79 135.98,545.22 		"/>
		<polygon class="st2" points="200.04,403.61 231.03,397.02 231.03,380.43 186.35,389.93 186.35,624.04 200.04,621.13 		"/>
	</g>
	<g>
		<polygon class="st3" points="552.25,704.96 538.56,691.28 538.56,746.01 512.57,751.53 526.26,765.22 552.25,759.69 		"/>
		<polygon class="st3" points="291.48,629.96 268.89,744.78 282.57,758.46 305.17,643.64 575.91,586.09 575.91,569.5 		"/>
		<polygon class="st3" points="552.25,618.15 538.56,604.47 538.56,659.2 512.57,664.73 526.26,678.41 552.25,672.89 		"/>
		<polygon class="st3" points="488.78,630.55 475.09,616.87 475.09,786.66 488.78,783.76 		"/>
		<polygon class="st3" points="408.59,647.6 394.91,633.91 394.91,803.57 408.59,800.66 		"/>
		<polygon class="st3" points="328.28,700.29 314.59,686.61 314.6,820.78 328.28,817.87 		"/>
		<polygon class="st3" points="237.52,719.58 223.83,705.9 250.22,834.46 260.64,832.25 		"/>
		<polygon class="st3" points="200.04,665.99 248.6,655.67 244.99,639.84 186.35,652.3 186.35,848.04 200.04,845.13 		"/>
	</g>
</g>
</svg>
