<?xml version="1.0" encoding="utf-8"?>
<!-- Generator: Adobe Illustrator 27.3.1, SVG Export Plug-In . SVG Version: 6.00 Build 0)  -->
<svg version="1.1" id="Capa_1" xmlns="http://www.w3.org/2000/svg" xmlns:xlink="http://www.w3.org/1999/xlink" x="0px" y="0px"
	 viewBox="0 0 557.11 764.44" style="enable-background:new 0 0 557.11 764.44;" xml:space="preserve">
<style type="text/css">
	.st0{opacity:0.3;}
	.st1{fill:#FFFFFF;}
	.st2{fill:none;stroke:#FFFFFF;stroke-width:0.817;stroke-miterlimit:10;}
</style>
<g>
	<g class="st0">
		<polygon class="st1" points="456.7,422.78 449.26,430.6 459.4,435.88 465.95,429.33 		"/>
		<polygon class="st1" points="399.41,394.97 401.54,418.02 412.79,415.92 412.79,409.41 407.84,400.59 410.33,390.29 
			399.08,369.93 393.91,382.84 398.93,395.22 		"/>
		<polygon class="st1" points="275.15,358.01 274.26,356.32 278.96,340.13 266.3,340.13 259.63,346.45 260.29,347.13 250.46,349.81 
			250.2,350.14 253.38,358.95 268.17,359.72 		"/>
		<polygon class="st1" points="244.93,320.52 241.95,328.56 249.38,325.48 256.61,312.66 249.11,314.39 		"/>
		<polygon class="st1" points="324.54,436.2 341.32,440.91 343.97,436.69 351.19,414.77 353.53,390.07 327.21,379.11 328.08,351.99 
			309.43,369.41 309.24,371.51 302.15,377.85 301.05,379.04 299.76,401.3 293.34,410.71 305.66,423.64 320.5,427.3 		"/>
		<polygon class="st1" points="275.21,379.03 281.7,383.94 298.33,377.9 300.25,375.82 306.57,370.17 306.6,369.89 298.78,364.22 
			281.7,370.49 280.07,367.37 275.34,378.7 		"/>
		<polygon class="st1" points="300.58,440.32 308.6,439.26 313.09,428.34 304.21,426.15 291.74,413.06 279.22,431.4 285.79,452.01 
			294.43,454.87 		"/>
		<polygon class="st1" points="247.98,348.47 248.84,347.37 255,345.69 248.27,338.8 239.38,347.8 		"/>
		<polygon class="st1" points="410.8,400.18 415.57,408.69 415.57,415.4 426.74,413.32 426.77,401.99 428.82,392.57 428.82,392.55 
			412.74,392.13 		"/>
		<polygon class="st1" points="185.36,22.15 184.66,22.72 128.03,69.03 133.95,83.37 132.18,83.96 135.41,138.16 135.79,138.33 
			281.09,134.72 324.47,165.3 399.39,140.2 411.96,156.45 412.18,156.63 472.06,117.72 457.99,76.8 409.04,63.38 363.18,104.61 
			324.73,79.13 395.33,43.55 391.5,22.23 299,34.59 185.27,21.81 		"/>
		<polygon class="st1" points="368.94,419.8 374.56,407.8 396.45,396.5 390.92,382.85 396.86,368 347.93,354.9 341.91,369.42 
			337.3,370.84 339.78,354.19 330.89,351.13 330.05,377.28 356.49,388.3 354.04,414.13 		"/>
		<polygon class="st1" points="284.08,246.88 289.62,278.42 307.1,272.45 309.65,236.22 345.46,199.99 409.79,158.18 398.41,143.47 
			324.02,168.38 280.24,137.52 135.22,141.12 134.88,140.97 103.09,203.75 121.6,230.78 123.93,236.21 171.87,232.2 214.09,272.84 
			225.25,247.73 		"/>
		<polygon class="st1" points="249.66,327.6 249.66,336.25 257.69,344.46 265.19,337.35 279.21,337.35 279.8,337.22 281.52,331.28 
					"/>
		<polygon class="st1" points="391.75,557.66 417.11,574.79 425.88,589.19 437.55,574.95 408.92,543.12 395.99,543.73 		"/>
		<polygon class="st1" points="411.32,711.89 438.24,644.95 440.63,640.33 421.11,619.48 443.94,582.06 439.43,577.04 
			425.55,593.98 415.05,576.75 389.8,559.69 369.35,563.03 365.65,590.53 359.86,610.57 369.5,635.31 369.5,670.05 383.62,693.44 
			386.99,724.57 398.96,737.87 407.19,739.89 408.11,746.85 406.73,747.03 438.59,752.61 417.69,735.97 		"/>
		<polygon class="st1" points="506.94,445.21 440.36,436 454.88,416.52 446.42,404.47 432.88,415 432.55,415.06 399.05,421.31 
			397.02,399.33 376.67,409.83 370.36,423.32 353.43,416.87 346.51,437.89 346.41,438.03 325.39,471.41 351.11,491.53 364.7,485.01 
			419.87,531.21 411.34,541.66 447.39,581.74 433.07,605.22 440.12,612.98 453.15,616.16 474,575.89 510.13,563.85 514.73,515.69 
			541.29,467.17 		"/>
		<polygon class="st1" points="356.73,525.92 353.28,528.55 361.65,540.64 362.7,555.04 368.55,560.35 389.05,557 393.91,541.04 
			408.83,540.34 415.98,531.58 364.29,488.29 352.55,493.92 355.2,504.88 351.45,514.05 		"/>
		<polygon class="st1" points="451.83,618.7 438.64,615.48 431.56,607.69 424.58,619.12 441.99,637.71 		"/>
		<polygon class="st1" points="444.82,402.19 438.24,392.8 431.66,392.62 429.52,402.44 429.52,412.8 431.71,412.39 		"/>
		<polygon class="st1" points="234.54,318.48 242.95,318.48 247.43,311.93 257.54,309.63 258.32,309.63 263.19,301.01 
			244.86,298.88 220.56,316.36 203.09,297.6 212.92,275.47 212.77,275.42 212.53,275.19 170.85,235.07 125.08,238.91 154.13,306.61 
			195.33,332.59 216.58,328.39 223.77,339.02 		"/>
		<polygon class="st1" points="129.57,81.89 130.24,81.67 124.67,68.18 181.68,21.57 86.96,18.23 60.46,51.82 25.3,75.44 
			17.16,98.53 88.8,71.76 		"/>
		<polygon class="st1" points="353.3,525.04 348.43,514.09 352.29,504.66 349.7,493.95 321.7,472.05 339.77,443.36 322.55,438.53 
			318.53,429.68 315.81,429.01 310.56,441.81 302.52,442.86 295.99,458.31 286.83,455.28 299.41,494.79 340.92,534.47 		"/>
		<polygon class="st1" points="278.18,364.69 278.58,364.54 276.48,360.55 268.44,362.51 254.4,361.79 255.14,363.85 272.92,377.3 
					"/>
		<polygon class="st1" points="246.88,336.25 246.88,329.52 237.12,333.57 241.69,321.26 236.22,321.26 225.54,341.63 
			229.18,347.02 235.76,347.52 		"/>
		<polygon class="st1" points="272.36,294.43 281.73,289.27 302.19,289.27 329.54,302.83 326.31,309.73 304.13,308.22 
			292.29,297.23 276.35,298.31 		"/>
		<polygon class="st1" points="303.92,315.45 302.62,322.43 313.61,322.43 314.98,317.26 		"/>
		<polygon class="st1" points="323.54,318.94 326.5,313.06 355.01,309.73 358.42,316.79 337.14,322.43 		"/>
		<polygon class="st1" points="404.68,742.14 397.47,740.36 384.32,725.76 380.92,694.35 366.72,670.83 366.72,635.83 356.93,610.7 
			362.95,589.85 366.64,562.36 360.01,556.35 358.94,541.6 351.06,530.24 342.95,536.42 347.57,540.83 354.3,650.62 384.05,743.05 
			405.3,746.78 		"/>
	</g>
	<g>
		<polygon class="st2" points="456.43,422.78 448.99,430.6 459.13,435.88 465.68,429.33 		"/>
		<polygon class="st2" points="399.14,394.97 401.26,418.02 412.52,415.92 412.52,409.41 407.57,400.59 410.05,390.29 
			398.81,369.93 393.64,382.84 398.66,395.22 		"/>
		<polygon class="st2" points="274.88,358.01 273.99,356.32 278.68,340.13 266.03,340.13 259.36,346.45 260.02,347.13 
			250.19,349.81 249.93,350.14 253.11,358.95 267.9,359.72 		"/>
		<polygon class="st2" points="244.66,320.52 241.67,328.56 249.11,325.48 256.34,312.66 248.84,314.39 		"/>
		<polygon class="st2" points="324.27,436.2 341.04,440.91 343.7,436.69 350.92,414.77 353.26,390.07 326.94,379.11 327.81,351.99 
			309.16,369.41 308.97,371.51 301.88,377.85 300.78,379.04 299.49,401.3 293.07,410.71 305.39,423.64 320.23,427.3 		"/>
		<polygon class="st2" points="274.94,379.03 281.43,383.94 298.06,377.9 299.98,375.82 306.3,370.17 306.33,369.89 298.51,364.22 
			281.43,370.49 279.79,367.37 275.07,378.7 		"/>
		<polygon class="st2" points="300.31,440.32 308.33,439.26 312.81,428.34 303.93,426.15 291.47,413.06 278.95,431.4 285.51,452.01 
			294.16,454.87 		"/>
		<polygon class="st2" points="247.71,348.47 248.56,347.37 254.73,345.69 247.99,338.8 239.11,347.8 		"/>
		<polygon class="st2" points="410.53,400.18 415.3,408.69 415.3,415.4 426.47,413.32 426.5,401.99 428.55,392.57 428.55,392.55 
			412.47,392.13 		"/>
		<polygon class="st2" points="185.09,22.15 184.39,22.72 127.76,69.03 133.67,83.37 131.91,83.96 135.14,138.16 135.51,138.33 
			280.82,134.72 324.2,165.3 399.12,140.2 411.69,156.45 411.91,156.63 471.79,117.72 457.72,76.8 408.76,63.38 362.9,104.61 
			324.46,79.13 395.06,43.55 391.22,22.23 298.72,34.59 185,21.81 		"/>
		<polygon class="st2" points="368.66,419.8 374.28,407.8 396.18,396.5 390.65,382.85 396.59,368 347.66,354.9 341.63,369.42 
			337.03,370.84 339.51,354.19 330.61,351.13 329.78,377.28 356.22,388.3 353.77,414.13 		"/>
		<polygon class="st2" points="283.81,246.88 289.35,278.42 306.82,272.45 309.38,236.22 345.19,199.99 409.52,158.18 
			398.13,143.47 323.75,168.38 279.97,137.52 134.95,141.12 134.6,140.97 102.82,203.75 121.32,230.78 123.66,236.21 171.6,232.2 
			213.82,272.84 224.98,247.73 		"/>
		<polygon class="st2" points="249.39,327.6 249.39,336.25 257.41,344.46 264.92,337.35 278.94,337.35 279.53,337.22 281.25,331.28 
					"/>
		<polygon class="st2" points="391.48,557.66 416.84,574.79 425.61,589.19 437.27,574.95 408.65,543.12 395.72,543.73 		"/>
		<polygon class="st2" points="404.41,742.14 397.2,740.36 384.05,725.76 380.65,694.35 366.45,670.83 366.45,635.83 356.66,610.7 
			362.68,589.85 366.37,562.36 359.73,556.35 358.67,541.6 350.79,530.24 342.68,536.42 347.3,540.83 354.03,650.62 383.78,743.05 
			405.02,746.78 		"/>
		<polygon class="st2" points="411.05,711.89 437.96,644.95 440.36,640.33 420.83,619.48 443.67,582.06 439.16,577.04 
			425.28,593.98 414.78,576.75 389.53,559.69 369.08,563.03 365.37,590.53 359.59,610.57 369.23,635.31 369.23,670.05 
			383.35,693.44 386.71,724.57 398.69,737.87 406.92,739.89 407.84,746.85 406.46,747.03 438.32,752.61 417.42,735.97 		"/>
		<polygon class="st2" points="506.67,445.21 440.09,436 454.61,416.52 446.15,404.47 432.61,415 432.28,415.06 398.78,421.31 
			396.75,399.33 376.4,409.83 370.09,423.32 353.15,416.87 346.23,437.89 346.14,438.03 325.12,471.41 350.84,491.53 364.43,485.01 
			419.59,531.21 411.07,541.66 447.12,581.74 432.79,605.22 439.85,612.98 452.88,616.16 473.73,575.89 509.86,563.85 
			514.46,515.69 541.02,467.17 		"/>
		<polygon class="st2" points="356.46,525.92 353,528.55 361.38,540.64 362.43,555.04 368.28,560.35 388.77,557 393.64,541.04 
			408.56,540.34 415.71,531.58 364.02,488.29 352.28,493.92 354.93,504.88 351.18,514.05 		"/>
		<polygon class="st2" points="451.56,618.7 438.36,615.48 431.29,607.69 424.31,619.12 441.71,637.71 		"/>
		<polygon class="st2" points="444.55,402.19 437.96,392.8 431.39,392.62 429.24,402.44 429.24,412.8 431.44,412.39 		"/>
		<polygon class="st2" points="234.26,318.48 242.68,318.48 247.16,311.93 257.27,309.63 258.05,309.63 262.92,301.01 
			244.59,298.88 220.29,316.36 202.81,297.6 212.65,275.47 212.5,275.42 212.26,275.19 170.58,235.07 124.81,238.91 153.86,306.61 
			195.06,332.59 216.31,328.39 223.5,339.02 		"/>
		<polygon class="st2" points="129.3,81.89 129.97,81.67 124.4,68.18 181.41,21.57 86.69,18.23 60.19,51.82 25.02,75.44 
			16.89,98.53 88.53,71.76 		"/>
		<polygon class="st2" points="353.03,525.04 348.16,514.09 352.02,504.66 349.43,493.95 321.43,472.05 339.5,443.36 322.27,438.53 
			318.25,429.68 315.54,429.01 310.29,441.81 302.25,442.86 295.72,458.31 286.56,455.28 299.14,494.79 340.65,534.47 		"/>
		<polygon class="st2" points="277.9,364.69 278.31,364.54 276.21,360.55 268.17,362.51 254.13,361.79 254.87,363.85 272.64,377.3 
					"/>
		<polygon class="st2" points="246.61,336.25 246.61,329.52 236.85,333.57 241.42,321.26 235.95,321.26 225.26,341.63 
			228.91,347.02 235.48,347.52 		"/>
		<polygon class="st2" points="272.08,294.43 281.46,289.27 301.92,289.27 329.27,302.83 326.04,309.73 303.86,308.22 
			292.01,297.23 276.08,298.31 		"/>
		<polygon class="st2" points="303.64,315.45 302.35,322.43 313.33,322.43 314.71,317.26 		"/>
		<polygon class="st2" points="323.27,318.94 326.22,313.06 354.74,309.73 358.15,316.79 336.87,322.43 		"/>
	</g>
</g>
</svg>
